HIERARCHY
ROOT Hips
{
	OFFSET 0.00000 0.00000 0.00000
	CHANNELS 6 Xposition Yposition Zposition Zrotation Yrotation Xrotation 
	JOINT LHipJoint
	{
		OFFSET 0 0 0
		CHANNELS 3 Zrotation Yrotation Xrotation
		JOINT LeftHip
		{
			OFFSET 1.26600 -1.82114 0.91038
			CHANNELS 3 Zrotation Yrotation Xrotation
			JOINT LeftKnee
			{
				OFFSET 2.50076 -6.87080 0.00000
				CHANNELS 3 Zrotation Yrotation Xrotation
				JOINT LeftAnkle
				{
					OFFSET 2.57364 -7.07102 0.00000
					CHANNELS 3 Zrotation Yrotation Xrotation
					JOINT LeftToe
					{
						OFFSET 0.13572 -0.37290 1.97004
						CHANNELS 3 Zrotation Yrotation Xrotation
						End Site
						{
							OFFSET 0.00000 -0.00000 1.01383
						}
					}
				}
			}
		}
	}
	JOINT RHipJoint
	{
		OFFSET 0 0 0
		CHANNELS 3 Zrotation Yrotation Xrotation
		JOINT RightHip
		{
			OFFSET -1.20803 -1.82114 0.91038
			CHANNELS 3 Zrotation Yrotation Xrotation
			JOINT RightKnee
			{
				OFFSET -2.54916 -7.00377 0.00000
				CHANNELS 3 Zrotation Yrotation Xrotation
				JOINT RightAnkle
				{
					OFFSET -2.56374 -7.04382 0.00000
					CHANNELS 3 Zrotation Yrotation Xrotation
					JOINT RightToe
					{
						OFFSET -0.23520 -0.64621 2.09921
						CHANNELS 3 Zrotation Yrotation Xrotation
						End Site
						{
							OFFSET -0.00000 -0.00000 1.10065
						}
					}
				}
			}
		}
	}
	JOINT lowerback
	{
		OFFSET 0 0 0
		CHANNELS 3 Zrotation Yrotation Xrotation
		JOINT Chest
		{
			OFFSET 0.05492 2.10797 -0.12074
			CHANNELS 3 Zrotation Yrotation Xrotation
			JOINT Chest2
			{
				OFFSET 0.04577 2.11592 -0.04483
				CHANNELS 3 Zrotation Yrotation Xrotation
				JOINT lowerneck
				{
					OFFSET 0 0 0
					CHANNELS 3 Zrotation Yrotation Xrotation
					JOINT Neck
					{
						OFFSET -0.10759 1.80167 0.15770
						CHANNELS 3 Zrotation Yrotation Xrotation
						JOINT Head
						{
							OFFSET 0.09237 1.77509 -0.40848
							CHANNELS 3 Zrotation Yrotation Xrotation
							End Site
							{
								OFFSET 0.03805 1.84093 -0.15754
							}
						}
					}
				}
				JOINT LeftCollar
				{
					OFFSET 0 0 0
					CHANNELS 3 Zrotation Yrotation Xrotation
					JOINT LeftShoulder
					{
						OFFSET 3.42372 1.09575 -0.28209
CHANNELS 3 Zrotation Xrotation Yrotation
						JOINT LeftElbow
						{
OFFSET 0 -4.956810 0.000000
CHANNELS 3 Zrotation Xrotation Yrotation
							JOINT LeftWrist
							{
OFFSET 0 -3.409150 0.000000
CHANNELS 3 Zrotation Xrotation Yrotation
								JOINT lhand
								{
									OFFSET 0 0 0
CHANNELS 3 Zrotation Xrotation Yrotation
									JOINT LFingers
									{
OFFSET 0 -0.616400 0.000000
CHANNELS 3 Zrotation Xrotation Yrotation
										End Site
										{
OFFSET 0 -0.496960 0.000000
										}
									}
								}
								JOINT LThumb
								{
OFFSET 0 0.000000 0.000000
CHANNELS 3 Zrotation Xrotation Yrotation
									End Site
									{
OFFSET 0 -0.504550 0.504550
									}
								}
							}
						}
					}
				}
				JOINT RightCollar
				{
					OFFSET 0 0 0
					CHANNELS 3 Zrotation Yrotation Xrotation
					JOINT RightShoulder
					{
						OFFSET -3.24731 1.15872 -0.32221
CHANNELS 3 Zrotation Xrotation Yrotation
						JOINT RightElbow
						{
OFFSET 0 -5.352000 0.000000
CHANNELS 3 Zrotation Xrotation Yrotation
							JOINT RightWrist
							{
OFFSET 0 -3.437210 -0.000000
CHANNELS 3 Zrotation Xrotation Yrotation
								JOINT rhand
								{
									OFFSET 0 0 0
CHANNELS 3 Zrotation Xrotation Yrotation
									JOINT RFingers
									{
OFFSET 0 -0.720090 0.000000
CHANNELS 3 Zrotation Xrotation Yrotation
										End Site
										{
OFFSET 0 -0.580560 0.000000
										}
									}
								}
								JOINT RThumb
								{
OFFSET 0 0.000000 0.000000
CHANNELS 3 Zrotation Xrotation Yrotation
									End Site
									{
OFFSET 0 -0.589420 0.589420
									}
								}
							}
						}
					}
				}
			}
		}
	}
}
MOTION
Frames: 10
Frame Time: 0.008333333333333333
8.841400 17.014500 -33.653400 -7.390200 1.465200 3.155100 0.000000 0.000000 0.000000 -8.149300 -8.705000 -34.136800 4.461600 12.750600 38.441800 0.334200 -7.431600 -10.795500 0.088900 -1.923200 -5.293400 0.000000 0.000000 0.000000 33.402700 -4.901200 -1.371100 -1.028700 -6.451700 18.100700 -0.833800 4.629000 -16.317400 -0.047800 -1.410300 3.878400 8.306100 1.403300 6.003200 3.509400 2.455500 1.384800 -1.193200 1.195000 -1.738200 -8.351900 -3.328300 -15.024600 3.132600 -3.331000 28.414900 2.117300 -1.977900 12.042200 0.000000 0.000000 0.000000 2.344200 5.182100 -27.232500 22.744000 -33.807600 6.995300 16.948700 2.572400 -21.745900 0.000000 0.000000 0.000000 -7.125000 0.000000 0.000000 -12.116800 52.213000 2.177700 0.000000 0.000000 0.000000 -8.604500 -7.375900 18.447600 -17.272300 -27.215300 -4.211100 -19.481900 -13.581200 -11.914600 0.000000 0.000000 0.000000 7.125000 0.000000 -0.000000 5.373900 17.398300 3.536900
8.832304 17.013108 -33.557608 -7.472904 1.236581 3.276139 0.000000 0.000000 0.000000 -8.195711 -8.420781 -34.473277 4.070451 12.252335 36.632433 0.305611 -7.581599 -10.451875 0.097254 -2.010731 -5.535292 0.000000 0.000000 0.000000 33.534599 -4.593404 -0.765348 -0.984610 -6.315902 17.703889 -0.835471 4.399174 -16.351094 -0.051049 -1.457546 4.008721 7.711579 0.939843 6.233397 4.204911 1.861722 1.196465 -0.112759 0.887390 -2.153668 -9.646665 -2.822331 -15.228529 3.136498 -2.216494 28.817838 2.510770 -1.629356 12.195634 0.000000 0.000000 0.000000 0.685668 5.704591 -25.053426 22.576550 -33.622514 6.902386 16.973576 3.093778 -21.771426 0.000000 0.000000 0.000000 -7.125000 0.000000 0.000000 -12.102598 52.242703 2.184012 0.000000 0.000000 0.000000 -9.816190 -7.594030 20.795888 -17.278519 -27.223468 -4.213977 -19.839077 -14.105734 -11.722553 0.000000 0.000000 0.000000 7.125000 0.000000 0.000000 5.120126 17.570298 3.349215
8.828688 17.018310 -33.456764 -7.373703 1.101826 3.370115 0.000000 0.000000 0.000000 -8.528254 -8.155232 -34.700903 3.680843 11.720412 34.753610 0.268458 -7.899373 -10.039308 0.135412 -2.367179 -6.521763 0.000000 0.000000 0.000000 33.358784 -4.776256 -0.367536 -0.954223 -6.220528 17.425692 -0.826864 4.705558 -16.242621 -0.067144 -1.669312 4.592606 7.866860 1.109799 5.609565 3.968029 1.992738 1.534491 -0.433434 0.979646 -1.431630 -9.515736 -2.887855 -15.273247 3.352877 -2.408125 28.535034 2.537603 -1.665690 12.104900 0.000000 0.000000 0.000000 0.919497 5.123319 -25.220020 22.284062 -33.296289 6.741214 16.705982 3.257682 -21.785733 0.000000 0.000000 0.000000 -7.125000 0.000000 0.000000 -12.372045 52.210657 2.223981 0.000000 0.000000 0.000000 -9.575123 -8.142484 20.600672 -17.406094 -27.389990 -4.272523 -19.762558 -14.137308 -11.517402 0.000000 0.000000 0.000000 7.125000 0.000000 0.000000 5.169442 17.792483 3.356196
8.826395 17.021240 -33.352906 -7.228260 0.911697 3.512510 0.000000 0.000000 0.000000 -8.873560 -7.976852 -34.956047 3.320789 11.193358 32.939112 0.236942 -8.260241 -9.725947 0.139425 -2.406576 -6.630801 0.000000 0.000000 0.000000 33.087735 -5.051942 0.051764 -0.908428 -6.073146 16.996901 -0.799821 5.167050 -15.949376 -0.065406 -1.649589 4.538227 7.643865 1.232808 5.444407 3.952647 2.124325 1.542520 -0.330697 1.048454 -1.330622 -9.506424 -2.898887 -15.263035 3.339825 -2.423314 28.523437 2.528683 -1.672455 12.098999 0.000000 0.000000 0.000000 0.806402 5.192035 -25.262940 22.161011 -33.158474 6.673736 16.172204 3.057053 -21.550211 0.000000 0.000000 0.000000 -7.125000 0.000000 0.000000 -12.799913 51.884217 2.198744 0.000000 0.000000 0.000000 -9.629477 -8.229874 20.654725 -17.523440 -27.542636 -4.326632 -19.359370 -14.072479 -11.348737 0.000000 0.000000 0.000000 7.125000 0.000000 0.000000 5.449112 18.002083 3.513982
8.825757 17.010751 -33.249145 -7.442129 0.694243 3.642581 0.000000 0.000000 0.000000 -8.697000 -7.983939 -35.208273 2.994561 10.682039 31.219213 0.213290 -8.515430 -9.488753 0.098524 -2.008873 -5.530807 0.000000 0.000000 0.000000 33.278813 -4.912299 0.689190 -0.853046 -5.889538 16.464527 -0.786384 5.168379 -15.810912 -0.060850 -1.591116 4.376927 8.014657 1.335086 5.335929 3.852805 2.264931 1.544112 -0.642609 1.120668 -1.239868 -9.344769 -2.912070 -15.321560 3.395875 -2.499815 28.535342 2.511002 -1.681808 12.117854 0.000000 0.000000 0.000000 0.997506 5.205711 -25.364589 21.987906 -32.963202 6.579324 16.034037 2.885380 -21.392970 0.000000 0.000000 0.000000 -7.125000 0.000000 0.000000 -12.871610 51.703814 2.154785 0.000000 0.000000 0.000000 -9.421849 -8.248006 20.837740 -17.687096 -27.754543 -4.402601 -19.198254 -14.136508 -11.286108 0.000000 0.000000 0.000000 7.125000 0.000000 0.000000 5.561123 18.080581 3.577472
8.824610 16.998287 -33.141582 -7.786583 0.491004 3.749907 0.000000 0.000000 0.000000 -8.318461 -8.139509 -35.439321 2.710582 10.207230 29.654154 0.196471 -8.696315 -9.323578 0.069863 -1.701752 -4.682290 0.000000 0.000000 0.000000 33.571736 -5.240902 1.223878 -0.786066 -5.658430 15.796905 -0.770273 5.302117 -15.642862 -0.033537 -1.134725 3.120122 8.376387 1.412785 5.588299 3.853390 2.439155 1.281472 -0.863836 1.187572 -1.627323 -9.096260 -2.875725 -15.165826 3.290942 -2.503970 28.644005 2.430628 -1.673435 12.122533 0.000000 0.000000 0.000000 1.081648 5.575459 -25.420911 21.731843 -32.672254 6.440637 16.273185 3.118026 -21.619956 0.000000 0.000000 0.000000 -7.125000 0.000000 0.000000 -12.729666 51.970851 2.213874 0.000000 0.000000 0.000000 -9.287023 -7.815855 21.102360 -17.877281 -27.999573 -4.491573 -19.073557 -14.253472 -11.464218 0.000000 0.000000 0.000000 7.125000 0.000000 0.000000 5.651284 17.903849 3.658313
8.821723 16.992263 -33.031271 -7.928139 0.209848 3.889306 0.000000 0.000000 0.000000 -8.182859 -8.196120 -35.758621 2.471339 9.782359 28.277636 0.177934 -8.932262 -9.161093 0.096715 -1.980534 -5.452741 0.000000 0.000000 0.000000 33.537984 -5.699411 1.807072 -0.707492 -5.373198 14.976674 -0.722850 5.952168 -15.160916 -0.054011 -1.424979 3.920218 8.354898 1.519253 5.407963 3.948151 2.560087 1.272196 -0.754916 1.250796 -1.532473 -8.976955 -2.840956 -15.079244 3.088867 -2.434954 28.532435 2.342647 -1.653705 12.051464 0.000000 0.000000 0.000000 0.881970 5.554873 -25.321561 21.395258 -32.286116 6.260044 16.515082 3.577695 -21.929647 0.000000 0.000000 0.000000 -7.125000 0.000000 0.000000 -12.618932 52.321150 2.303858 0.000000 0.000000 0.000000 -9.370346 -7.966376 21.207505 -17.830177 -27.938952 -4.469503 -19.000545 -14.213386 -11.824638 0.000000 0.000000 0.000000 7.125000 0.000000 0.000000 5.708357 17.532373 3.742293
8.820895 16.992791 -32.922041 -7.963590 -0.113307 4.010175 0.000000 0.000000 0.000000 -8.195507 -8.127916 -36.101711 2.265571 9.395756 27.043539 0.152728 -9.221951 -8.931544 0.151752 -2.498074 -6.885002 0.000000 0.000000 0.000000 33.387575 -5.987469 2.487717 -0.629598 -5.074534 14.121737 -0.665636 6.528793 -14.579993 -0.081594 -1.842639 5.070932 8.390546 1.577613 5.196460 3.926326 2.607796 1.336614 -0.791487 1.282240 -1.340445 -8.907131 -2.784343 -15.146766 3.009115 -2.342467 28.482943 2.313171 -1.613902 12.036707 0.000000 0.000000 0.000000 0.790327 5.472917 -25.101898 21.045345 -31.880693 6.074123 16.596597 3.920434 -21.837182 0.000000 0.000000 0.000000 -7.125000 0.000000 0.000000 -12.501195 52.242879 2.258266 0.000000 0.000000 0.000000 -9.320651 -8.380874 21.370296 -17.657452 -27.716220 -4.388837 -19.152476 -14.108446 -12.006257 0.000000 0.000000 0.000000 7.125000 0.000000 0.000000 5.605526 17.329609 3.699232
8.821247 16.994585 -32.814020 -8.110727 -0.380909 4.085909 0.000000 0.000000 0.000000 -7.999934 -8.252547 -36.326762 2.086856 9.042518 25.929970 0.131779 -9.357949 -8.691028 0.174987 -2.693894 -7.427736 0.000000 0.000000 0.000000 33.426280 -6.148927 3.191253 -0.562314 -4.800911 13.341981 -0.626636 6.721138 -14.176406 -0.089937 -1.932166 5.318278 8.583556 1.588154 5.306243 3.895940 2.652884 1.232100 -0.937135 1.296248 -1.496959 -8.883990 -2.711803 -15.173773 3.048577 -2.255524 28.636375 2.339291 -1.571012 12.096175 0.000000 0.000000 0.000000 0.774915 5.736693 -24.910049 20.731361 -31.512993 5.909101 16.584329 4.095089 -21.316101 0.000000 0.000000 0.000000 -7.125000 0.000000 0.000000 -12.304536 51.720215 2.063392 0.000000 0.000000 0.000000 -9.215047 -8.417388 21.731126 -17.643068 -27.697666 -4.382164 -19.423817 -14.118865 -11.829369 0.000000 0.000000 0.000000 7.125000 0.000000 0.000000 5.412691 17.492677 3.551747
8.818341 16.991373 -32.705095 -8.332650 -0.638346 4.183332 0.000000 0.000000 0.000000 -7.553995 -8.680109 -36.468534 1.939841 8.738352 24.981111 0.127856 -9.226320 -8.566484 0.175650 -2.697899 -7.438905 0.000000 0.000000 0.000000 33.556324 -6.328283 3.854698 -0.504502 -4.551420 12.633726 -0.598053 6.881118 -13.881128 -0.091737 -1.949937 5.367537 8.689297 1.645575 5.283542 3.968026 2.738002 1.171722 -0.925466 1.335293 -1.538995 -8.920901 -2.674533 -15.081550 3.085058 -2.212553 28.695224 2.367119 -1.553132 12.098364 0.000000 0.000000 0.000000 0.658829 6.001375 -24.836773 20.482932 -31.219632 5.779680 16.502686 4.105441 -20.773385 0.000000 0.000000 0.000000 -7.125000 0.000000 0.000000 -12.171698 51.163926 1.871691 0.000000 0.000000 0.000000 -9.209485 -8.328885 22.037588 -17.782149 -27.877277 -4.446982 -19.541890 -14.128346 -11.654864 0.000000 0.000000 0.000000 7.125000 0.000000 0.000000 5.326733 17.666046 3.474138
